<svg version="1.1" id="Layer_1" xmlns="http://www.w3.org/2000/svg" xmlns:xlink="http://www.w3.org/1999/xlink" x="0px" y="0px"
	 width="100%" viewBox="0 0 900 900" enable-background="new 0 0 900 900" xml:space="preserve">
<path fill="#067496" opacity="1.000000" stroke="none" 
	d="
M901.000000,312.000000 
	C901.000000,508.293701 901.000000,704.587402 901.000000,900.940552 
	C601.100159,900.940552 301.200348,900.940552 1.000000,900.940552 
	C1.000000,704.639893 1.000000,508.279663 1.466042,311.459717 
	C96.566139,310.999725 191.200195,310.999451 285.895172,311.430420 
	C285.638763,314.298767 285.047424,316.735779 285.046204,319.173096 
	C285.032654,345.779816 285.111359,372.386566 285.113678,399.327484 
	C285.096588,400.109985 285.130798,400.558350 285.104401,401.471375 
	C284.978607,410.285370 284.913391,418.634674 284.573547,427.190857 
	C282.482178,428.638641 280.704498,429.941864 278.841827,431.109406 
	C271.489777,435.717804 262.546417,438.949219 257.181641,445.239868 
	C251.802261,451.547668 245.203247,455.293823 238.994217,459.984497 
	C234.704041,463.225555 230.680939,467.138031 225.887756,469.322968 
	C218.124313,472.861969 212.700912,478.221191 208.717941,485.563446 
	C206.149475,490.298187 203.039307,494.738037 200.203033,499.329254 
	C199.429047,500.582092 198.617355,501.845520 198.083725,503.206329 
	C196.703369,506.726501 195.972000,510.792572 190.645798,510.137512 
	C190.096970,510.070007 189.267365,510.874146 188.836548,511.468506 
	C181.613113,521.433533 174.402679,531.408325 167.252243,541.425842 
	C162.109390,548.630737 157.059219,555.901794 151.514832,563.082703 
	C146.946182,563.344299 142.833633,563.890747 138.714020,563.950684 
	C119.149498,564.235229 99.564461,564.599915 80.189201,561.114563 
	C64.188232,558.236267 48.184216,555.353821 32.251827,552.126343 
	C26.306705,550.921997 20.560701,548.734741 14.219846,546.845459 
	C14.468554,548.531982 14.761037,549.350586 14.676441,550.128113 
	C14.061925,555.776306 16.815399,556.908325 22.047638,557.072510 
	C29.396128,557.303162 36.911751,558.065979 43.990379,559.964294 
	C67.271156,566.207458 90.502419,572.297424 114.887192,572.116089 
	C118.625420,572.088318 122.373482,573.383362 126.603523,574.155396 
	C123.445786,579.891479 120.758911,584.196411 113.879433,583.244019 
	C110.127533,582.724609 106.672035,584.455688 105.097801,588.309448 
	C103.524658,592.160522 100.644012,593.311584 96.813332,592.992126 
	C88.756004,592.320251 80.703720,591.564331 72.635941,591.056030 
	C70.250053,590.905823 67.153595,590.555054 68.030258,594.909241 
	C68.138634,595.447510 66.447006,596.589966 65.412514,597.074463 
	C61.171116,599.060486 59.975307,601.749512 62.283443,604.622620 
	C67.358635,610.940125 74.088730,613.483948 82.004181,612.763855 
	C87.182579,612.292847 92.024193,612.728577 96.412979,615.786316 
	C103.996643,621.070068 112.257263,624.331909 122.068909,624.381836 
	C101.417542,608.899170 101.417542,608.899170 101.683792,605.999573 
	C107.484161,605.688049 113.198593,605.587280 118.868416,605.031372 
	C128.970764,604.040833 137.884735,596.263000 148.879166,599.707031 
	C149.486710,599.897400 151.696976,597.707214 151.681198,596.647156 
	C151.630417,593.234131 153.375763,591.453247 156.430786,590.136658 
	C158.657791,592.127991 160.971252,593.849670 162.338028,596.136963 
	C165.402634,601.265564 168.178787,606.589355 170.730484,611.995117 
	C173.237747,617.306641 175.446945,622.770264 177.534927,628.262939 
	C178.445633,630.658752 178.684021,633.275269 174.774048,633.983948 
	C170.277130,632.939758 166.196304,631.711609 162.025406,631.135925 
	C157.177505,630.466919 152.864807,631.712402 150.059250,636.255981 
	C147.269394,640.774109 148.515289,644.800049 151.677551,648.498352 
	C149.666275,649.954773 147.503891,650.888184 146.329834,652.528870 
	C144.820877,654.637512 142.605637,658.024231 143.352631,659.601379 
	C145.030914,663.144714 143.870789,666.392395 144.167389,669.731750 
	C144.309525,671.331909 144.478455,673.196533 145.360565,674.417358 
	C148.919144,679.342468 152.760391,684.063293 156.575745,688.960327 
	C152.299576,694.820862 151.902679,697.203430 155.597427,700.697021 
	C157.189682,702.202576 159.524216,702.998352 161.620117,703.883057 
	C170.873108,707.789062 181.055069,708.477295 189.735641,714.912903 
	C207.057709,727.754883 227.182892,735.157043 247.853760,740.942139 
	C257.490509,743.639160 267.014282,747.220276 276.843689,748.642639 
	C294.129364,751.143921 311.611664,752.282654 329.006439,754.043701 
	C329.949249,754.139160 330.843933,754.710144 332.830872,755.467712 
	C324.829102,758.792358 317.947388,761.651672 311.065674,764.510986 
	C324.035187,767.282776 335.820984,764.359619 347.002075,759.259277 
	C358.579559,753.978149 370.377502,750.450134 383.214783,750.962036 
	C384.805054,751.025452 387.138519,751.081726 387.884094,750.148193 
	C389.984283,747.518433 392.170410,748.546265 394.504364,749.105896 
	C395.608246,749.370544 396.809448,749.976990 397.821747,749.758362 
	C406.637207,747.854187 415.414368,745.773682 424.214111,743.795349 
	C430.005280,742.493530 435.814941,741.273865 441.616333,740.017456 
	C441.915894,740.710266 442.215454,741.403137 442.515045,742.095947 
	C437.248016,751.345337 427.498291,755.456177 417.587097,761.719604 
	C419.993958,761.719604 420.983063,762.012756 421.654083,761.674561 
	C429.216644,757.864075 437.184967,754.632996 444.166931,749.940796 
	C461.059357,738.588318 477.288940,726.228516 496.476318,718.731873 
	C506.981110,714.627441 517.792175,711.854065 529.093201,712.186951 
	C531.955444,712.271240 535.455078,713.940918 537.410400,716.044983 
	C540.211426,719.059204 538.660645,723.033081 536.482605,725.963684 
	C533.837524,729.522583 530.876038,732.975891 527.520142,735.855652 
	C507.569122,752.976013 484.742645,765.518127 460.881256,776.085815 
	C434.421844,787.804077 406.500488,793.534912 377.535370,794.194397 
	C374.095581,794.272766 370.677399,795.299561 367.249176,795.886719 
	C389.297302,797.020752 411.155121,796.771423 432.826508,792.991272 
	C450.011261,789.993774 466.015442,784.119751 481.223694,775.449585 
	C489.983612,770.455566 499.342163,765.512756 509.052216,763.397766 
	C527.704163,759.335266 544.817871,752.443420 560.351440,741.591675 
	C563.487549,739.400879 565.667297,735.841064 568.287964,732.912415 
	C567.859619,732.263855 567.431213,731.615295 567.002869,730.966736 
	C559.471069,733.790771 551.939209,736.614807 544.407410,739.438782 
	C544.536316,736.903259 545.119751,735.301086 546.208008,734.195801 
	C554.805481,725.463684 563.332397,716.650757 572.214417,708.213867 
	C579.733948,701.071289 589.357056,699.915894 599.028687,701.175415 
	C614.775635,703.226074 630.445862,705.591064 646.411072,704.928467 
	C653.836426,704.620300 661.285217,704.875732 670.121216,704.875732 
	C666.072510,715.213318 663.640442,725.347107 658.463501,733.799805 
	C648.621582,749.869629 634.058655,761.773621 619.003967,772.887024 
	C594.731323,790.805054 567.654236,803.527466 539.566711,813.863403 
	C520.976685,820.704285 501.607330,825.426208 482.594086,831.120850 
	C481.064911,831.578918 479.592346,832.226074 478.093445,832.785400 
	C479.587952,833.815857 480.784485,834.027588 481.878784,833.782654 
	C491.333191,831.666443 500.850708,829.768799 510.194580,827.234924 
	C533.647034,820.875183 557.073547,814.405518 580.403503,807.612671 
	C596.390381,802.957886 611.779724,796.818481 625.840576,787.605774 
	C644.227478,775.558533 659.619629,760.094788 675.354797,744.998108 
	C681.941040,738.679138 688.348877,732.142029 695.293762,726.240723 
	C699.716736,722.482422 704.669128,719.014404 709.943115,716.678162 
	C715.972900,714.007019 719.995178,716.531860 722.146851,722.769409 
	C724.223694,728.789917 728.582214,730.091553 732.875183,725.240540 
	C736.526123,721.114868 739.263794,716.127014 742.036438,711.308228 
	C742.969421,709.686523 742.768311,707.412170 743.306519,704.059631 
	C738.380676,705.605225 734.810364,706.725525 730.787354,707.987854 
	C730.983032,705.741089 730.899902,703.894226 731.332092,702.177063 
	C734.694519,688.819275 742.344971,677.678101 750.542725,667.035339 
	C755.782959,660.231995 763.984497,661.597351 767.715759,669.343506 
	C769.805359,673.681519 771.188110,678.360107 773.023926,683.243225 
	C774.085510,682.617798 775.221436,682.349426 775.602112,681.662537 
	C779.666382,674.329529 782.481812,666.683289 779.980713,658.157471 
	C778.884460,654.420471 776.580261,653.989319 773.931580,656.740723 
	C772.829773,657.885254 771.687195,658.990479 770.229858,660.446655 
	C769.080505,658.198914 768.244141,656.789917 767.613464,655.294067 
	C762.478760,643.116211 764.936340,629.128174 776.038513,623.779175 
	C781.092529,621.344299 787.536194,621.591125 793.389587,621.079529 
	C798.443176,620.637756 800.341248,617.927856 797.984558,613.330261 
	C796.802063,611.023376 795.202332,608.930298 793.497009,606.283813 
	C794.750427,605.794189 796.041687,604.813110 796.645325,605.132263 
	C800.277405,607.053101 805.015381,608.459778 807.010559,611.563721 
	C810.922974,617.650269 813.659302,624.599670 816.145569,631.459045 
	C817.835083,636.120239 818.270813,641.235901 819.267273,646.148315 
	C820.342834,642.507935 820.874390,638.910767 820.814575,635.323486 
	C820.720947,629.704102 820.789368,623.988708 819.785645,618.497375 
	C817.754150,607.383179 815.441284,596.286682 812.508240,585.380859 
	C809.788086,575.266846 804.636230,565.690430 805.988159,554.790466 
	C806.228760,552.850891 807.720825,550.100769 809.286743,549.537842 
	C811.206726,548.847595 814.499939,549.299561 815.971802,550.622986 
	C818.656433,553.037048 820.437439,556.456055 822.780090,559.712463 
	C825.398071,554.914673 825.415894,549.990784 822.916565,544.976685 
	C820.937439,541.006409 818.746582,537.128845 817.022156,533.052551 
	C816.516785,531.857788 816.768372,529.458679 817.603760,528.809814 
	C818.597595,528.037842 820.849609,528.021057 822.106934,528.620300 
	C825.446655,530.211853 828.544617,532.310669 832.329346,534.558411 
	C831.440979,528.224365 827.283325,524.689148 823.236633,521.173096 
	C817.519226,516.205383 811.514282,511.557495 805.963989,506.414825 
	C804.208923,504.788635 803.516174,502.015930 802.337341,499.767914 
	C802.932190,499.268616 803.527039,498.769318 804.121826,498.270050 
	C810.937744,502.633392 817.753601,506.996735 824.669739,511.424286 
	C824.577393,510.756958 824.754822,509.651123 824.287415,509.032715 
	C819.835144,503.142792 815.362915,497.263092 810.716248,491.526459 
	C806.714111,486.585510 802.067444,482.118195 798.467651,476.914368 
	C795.305359,472.342743 796.986328,469.665955 802.414429,469.927734 
	C814.151245,470.493835 824.302917,475.978760 834.062622,481.647400 
	C855.964050,494.368164 874.406799,511.340454 891.044067,530.718750 
	C890.488892,534.515808 889.840332,537.891357 889.500061,541.297668 
	C889.417236,542.127747 890.347290,543.058960 890.811646,543.943665 
	C891.171265,543.782715 891.530945,543.621765 891.890564,543.460876 
	C891.890564,539.034241 891.890564,534.607605 891.938232,529.755005 
	C891.026917,526.471924 890.698608,523.149719 888.995972,520.841003 
	C882.763977,512.390381 876.690491,503.680298 869.417114,496.172485 
	C857.587524,483.961578 845.475708,471.866089 832.327759,461.137726 
	C820.689209,451.641022 807.738342,443.645264 794.880798,435.781555 
	C783.148682,428.606110 770.203918,424.256439 756.330566,423.112488 
	C748.175964,422.440094 740.881470,425.114441 733.348938,427.836365 
	C723.887390,431.255341 714.323364,432.363007 705.280579,425.282501 
	C693.351624,415.942108 679.661316,411.896240 665.017212,417.293549 
	C656.832886,420.309937 649.390442,425.444824 641.798401,429.937256 
	C631.008118,436.322235 620.196960,438.431091 608.784668,431.555786 
	C606.408630,430.124329 603.816040,428.813782 601.148376,428.143127 
	C582.934814,423.563904 569.405762,432.150574 556.876709,444.354858 
	C554.712158,444.204346 552.747681,444.025299 550.935791,443.402313 
	C541.939026,440.308716 532.982422,437.098114 523.863586,433.623016 
	C521.495972,431.910553 519.446228,429.804657 517.027710,429.217377 
	C506.164093,426.579376 495.296906,423.316895 484.241425,422.257019 
	C467.437073,420.645966 450.478943,420.270691 433.580231,420.141479 
	C422.353058,420.055634 411.107330,421.204163 399.888458,422.047180 
	C396.990204,422.264923 394.112885,424.167908 391.310944,423.986176 
	C384.124054,423.520111 376.938354,422.581421 369.841644,421.325867 
	C364.232574,420.333466 358.782654,418.468536 353.203613,417.261139 
	C351.711395,416.938141 349.958527,417.431488 348.405640,417.848938 
	C343.531494,419.159180 338.775238,421.142731 333.826263,421.885315 
	C326.334503,423.009430 318.701172,423.151123 311.161133,424.003571 
	C304.135498,424.797882 297.153198,425.975250 290.095215,426.517822 
	C290.028534,417.750397 290.018463,409.449188 290.339294,400.967407 
	C291.783264,399.005463 292.896362,397.224060 294.084290,395.372986 
	C294.159180,395.303314 294.449188,395.014771 294.803406,395.182892 
	C297.160004,393.895721 299.162415,392.440430 301.555542,390.992554 
	C305.231506,391.000153 308.517395,391.043060 311.801941,390.993469 
	C332.918304,390.674713 354.038116,390.484344 375.149475,389.958008 
	C393.242371,389.506989 411.327484,388.712494 429.411865,387.968414 
	C436.035400,387.695862 442.817932,387.924408 449.229736,386.541534 
	C464.280304,383.295563 479.024902,378.552521 494.133698,375.679382 
	C506.512817,373.325287 518.977051,374.606415 530.389587,380.920349 
	C537.482483,384.844452 544.540100,389.269867 552.758850,389.849396 
	C564.679443,390.690033 576.660156,390.764862 588.618347,390.907715 
	C590.919922,390.935242 593.235840,389.771515 595.545105,389.157349 
	C594.857666,386.821381 594.682495,384.147217 593.399841,382.204193 
	C584.820557,369.207977 584.168823,354.938965 585.618713,340.069641 
	C586.029053,335.861420 584.581970,331.472046 584.370728,327.093170 
	C586.166382,325.542908 588.113892,324.296936 588.874390,322.537781 
	C590.309265,319.218842 591.060791,315.604553 592.553894,312.068451 
	C695.674316,312.015930 798.337158,312.007965 901.000000,312.000000 
M213.376831,753.212097 
	C186.550568,744.233704 160.670120,733.746887 143.639359,708.911316 
	C145.867538,725.676575 153.377182,738.963013 168.049454,746.798584 
	C185.532074,756.135071 204.928055,759.303284 224.354141,761.912415 
	C236.092743,763.489075 247.802689,765.337708 259.577454,766.565979 
	C267.622345,767.405273 275.756927,767.384888 283.251129,767.721863 
	C260.540924,763.100830 237.302994,758.372437 213.376831,753.212097 
z"/>
<path fill="#A3DEF3" opacity="1.000000" stroke="none" 
	d="
M285.834259,310.999176 
	C191.200195,310.999451 96.566139,310.999725 1.466042,311.000000 
	C1.000000,207.695984 1.000000,104.391983 1.000000,1.043986 
	C300.885529,1.043986 600.771057,1.043986 901.000000,1.043986 
	C901.000000,104.355721 901.000000,207.711823 901.000000,311.533966 
	C798.337158,312.007965 695.674316,312.015930 592.664062,311.690674 
	C592.534119,302.625305 592.751648,293.893127 593.332642,284.932739 
	C593.580078,276.417389 594.622375,267.756378 587.990112,261.159271 
	C581.876343,255.077957 578.151123,248.089035 577.836182,239.340042 
	C577.807190,238.536148 576.191406,237.202286 575.217102,237.108795 
	C563.293884,235.964630 551.368042,234.724426 539.412109,234.077377 
	C526.847839,233.397400 514.250244,233.331482 501.667236,232.996597 
	C501.168274,232.983322 500.646759,233.053207 500.173981,232.933380 
	C488.373260,229.942322 476.634583,226.677460 464.761230,224.012238 
	C456.845001,222.235260 448.747375,221.247452 440.713531,220.020248 
	C434.911896,219.133987 429.055206,218.588181 423.274658,217.591354 
	C420.106659,217.045074 417.094208,215.603104 413.927032,215.044449 
	C405.422211,213.544235 396.907593,211.983185 388.332367,211.022049 
	C368.792755,208.832016 349.207977,207.048096 329.654541,204.976700 
	C318.752228,203.821747 307.875916,202.421402 296.666443,201.002655 
	C294.030762,199.549713 291.716583,198.225784 288.938934,196.787857 
	C284.307953,196.824860 286.091095,200.064285 286.082764,201.887985 
	C285.916748,238.258011 285.889526,274.628662 285.834259,310.999176 
M282.460022,173.052673 
	C282.457214,173.982452 282.083069,175.472015 282.509399,175.754883 
	C286.483154,178.391052 285.979126,182.394760 285.997223,186.260422 
	C286.011169,189.243713 286.000000,192.227127 286.000000,195.210480 
	C286.716858,195.270309 287.433746,195.330154 288.150604,195.389984 
	C288.433685,193.763916 288.796783,192.147003 288.984314,190.509995 
	C289.484406,186.144135 288.322968,180.284592 290.716156,177.728714 
	C294.837524,173.327179 292.060211,171.041275 289.646454,169.112122 
	C286.083496,166.264511 284.189148,169.282913 282.460022,173.052673 
z"/>
<path fill="#686B6D" opacity="1.000000" stroke="none" 
	d="
M524.011658,433.928772 
	C532.982422,437.098114 541.939026,440.308716 550.935791,443.402313 
	C552.747681,444.025299 554.712158,444.204346 557.211548,444.520996 
	C567.939209,447.305573 578.044861,450.218658 588.193481,452.973724 
	C591.476562,453.864960 594.928162,454.144440 598.197998,455.072479 
	C600.640930,455.765778 603.187195,456.681000 605.203003,458.158356 
	C608.363525,460.474640 610.768066,463.969299 614.119690,465.844299 
	C619.471008,468.837952 624.868225,471.430145 626.778076,477.982880 
	C624.778442,482.479095 627.269836,488.901031 631.445862,492.810852 
	C634.263184,495.448547 636.937683,498.533112 638.684326,501.928040 
	C640.117065,504.712921 641.616333,505.716278 644.616394,506.098236 
	C651.570557,506.983521 658.978271,506.079315 665.147400,510.591431 
	C667.009949,511.953705 668.886963,513.300781 670.687866,514.741638 
	C675.575256,518.651672 680.586914,522.428833 685.232422,526.610779 
	C688.222595,529.302551 690.346069,532.975159 693.394775,535.580017 
	C700.998352,542.076599 705.922607,549.474854 704.058411,560.056763 
	C703.660645,562.314636 703.824829,564.723267 704.076721,567.024475 
	C704.227844,568.405273 704.718811,570.023682 705.631348,570.996521 
	C708.767090,574.339050 709.691956,578.178162 710.194214,582.689270 
	C710.847168,588.552612 711.655090,594.585938 719.174500,596.966370 
	C726.823975,599.387939 731.839111,605.047607 733.997559,613.071289 
	C734.481018,614.868652 736.063843,616.370422 736.989624,618.321228 
	C734.340027,623.072205 730.994385,627.251282 729.540344,632.008484 
	C727.334900,639.224121 726.377319,646.829407 725.022949,654.293335 
	C724.362488,657.933411 722.858398,660.289917 719.191406,662.059814 
	C715.487427,663.847534 711.945251,666.779541 709.443542,670.058228 
	C705.756592,674.890137 703.235168,680.595459 699.819031,685.660095 
	C698.834778,687.119263 696.251953,688.739929 694.795715,688.430969 
	C687.674255,686.920105 682.266541,689.800537 677.079102,694.025940 
	C675.884216,694.999329 674.207642,696.091614 672.820862,696.007446 
	C660.957703,695.287109 648.970520,695.149231 637.290833,693.209290 
	C619.883362,690.317932 602.721619,685.973389 585.402649,682.510559 
	C578.516235,681.133667 572.283142,682.413025 567.836304,688.750610 
	C567.067566,689.846252 564.612488,690.845825 563.472717,690.427673 
	C550.581299,685.697937 537.899048,688.349060 525.461426,691.745239 
	C499.809265,698.749817 477.351227,712.763428 454.329071,725.426514 
	C450.457642,727.555969 447.174591,727.270142 443.502655,726.064941 
	C437.415192,724.066956 431.183380,722.738586 424.983124,724.952759 
	C419.926422,726.758606 415.141388,729.325073 410.252960,731.546509 
	C407.575806,724.676697 401.677063,720.956299 394.094299,722.038635 
	C386.085022,723.181885 382.198273,727.875671 381.677795,736.135498 
	C377.857605,737.689819 374.492523,739.278137 370.984039,740.429443 
	C366.814392,741.797729 362.378204,744.081970 358.316925,743.631409 
	C352.765930,743.015564 347.353363,740.450500 342.074982,738.255554 
	C335.451721,735.501404 328.937134,732.186584 321.602203,735.057251 
	C315.038483,737.625977 308.565369,736.197083 302.063293,735.302490 
	C285.916260,733.080627 271.056335,727.155701 256.936005,719.229431 
	C254.818207,718.040649 252.919983,716.460571 250.920181,715.061523 
	C251.131393,714.712463 251.342606,714.363403 251.553802,714.014343 
	C253.843170,714.679199 256.132538,715.344055 258.390717,715.999878 
	C261.610474,711.815857 259.137207,708.725891 256.533386,706.275269 
	C249.225891,699.397888 239.706024,697.892090 232.058014,702.734680 
	C228.078476,700.515198 224.746643,695.009949 219.389847,700.425232 
	C218.912369,699.917053 218.486191,699.612305 218.257812,699.198364 
	C213.862778,691.232422 208.976974,684.118408 198.069687,685.826599 
	C197.296875,685.947632 195.806427,684.217163 195.326324,683.065552 
	C188.532303,666.768555 181.855484,650.422607 175.150299,634.088562 
	C178.684021,633.275269 178.445633,630.658752 177.534927,628.262939 
	C175.446945,622.770264 173.237747,617.306641 170.730484,611.995117 
	C168.178787,606.589355 165.402634,601.265564 162.338028,596.136963 
	C160.971252,593.849670 158.657791,592.127991 156.499725,589.729980 
	C155.675369,587.469482 155.264420,585.572205 154.545929,583.799622 
	C153.086639,580.199463 151.461075,576.666626 149.830780,572.766846 
	C149.643921,572.225952 149.530334,572.024353 149.399124,571.705444 
	C149.381516,571.588013 149.489578,571.376709 149.757294,571.650757 
	C158.865524,581.701538 166.744003,592.976379 182.503296,592.393127 
	C185.410904,581.878662 193.153152,574.364075 200.045486,566.081482 
	C204.446655,560.792480 206.145416,553.032959 202.940247,546.865784 
	C200.027847,541.261963 198.519196,537.522095 204.379166,533.611511 
	C204.501205,533.530029 204.334167,533.015381 204.250443,532.201904 
	C200.126923,532.201904 195.936203,532.201904 192.308685,532.201904 
	C191.867081,527.551392 191.373123,523.458008 191.141617,519.349731 
	C191.052689,517.771667 191.144012,515.069580 191.884003,514.785889 
	C193.523560,514.157288 196.362030,513.970459 197.398193,514.967896 
	C200.259384,517.722107 202.785706,520.980225 204.779861,524.423950 
	C206.101242,526.705933 206.278061,529.650757 206.745483,531.446716 
	C208.683487,531.354797 209.825363,531.215942 210.960022,531.260620 
	C217.794235,531.529785 220.195145,534.999207 218.401581,541.559326 
	C218.252670,542.103943 218.746735,542.817749 218.921585,543.458557 
	C219.889877,547.007385 219.348404,549.417480 214.854965,549.097717 
	C214.170425,549.048950 213.440277,549.641174 212.313049,550.111389 
	C214.243134,552.300781 215.971497,554.076843 217.486496,556.019409 
	C220.384781,559.735413 223.265701,557.815491 226.124329,556.098328 
	C228.004776,554.968750 229.787109,553.675842 232.047729,552.165955 
	C231.842880,551.667236 231.241394,550.203003 230.472672,548.331726 
	C233.696121,549.002258 237.087463,548.488586 237.795212,552.832581 
	C239.152664,561.164246 240.458038,569.508484 242.049362,577.796753 
	C243.476013,585.227356 245.257706,592.589844 246.882751,599.982361 
	C247.258392,599.913513 247.634048,599.844666 248.009705,599.775818 
	C250.343674,595.017456 252.677628,590.259094 255.048584,585.941406 
	C254.659866,588.131042 254.606857,590.094116 253.745667,591.592773 
	C249.396500,599.161560 249.587173,606.563660 254.007568,614.406372 
	C254.590042,619.502686 255.188339,624.160706 255.786636,628.818665 
	C256.432709,628.749207 257.078796,628.679749 257.724884,628.610291 
	C257.467560,623.203796 257.210236,617.797363 256.945435,612.233643 
	C255.790451,612.929565 254.879272,613.478638 253.989990,613.648682 
	C255.258316,611.135925 257.389801,609.082703 257.592896,606.853882 
	C258.340881,598.645203 258.449921,590.378296 258.797699,582.170898 
	C258.791901,582.170349 257.884216,582.088013 256.995087,581.621094 
	C259.689301,576.371582 261.580231,570.741455 265.315704,566.909485 
	C267.819336,564.341125 268.608826,562.258789 269.133972,559.072693 
	C269.815887,554.935669 270.906921,550.666931 272.824432,546.975769 
	C276.398926,540.094971 280.920441,533.710388 284.600281,526.878296 
	C286.446686,523.450256 288.417328,522.023438 292.519928,521.778198 
	C297.672760,521.470337 303.820923,521.572693 305.576019,514.400635 
	C305.808472,513.450684 307.561218,512.195312 308.576447,512.224976 
	C314.856903,512.408447 318.273560,517.369751 322.522461,520.974976 
	C325.024841,523.098267 325.396881,525.181091 323.337402,527.817200 
	C323.015686,528.228943 323.364777,529.492065 323.781525,530.104370 
	C330.336212,539.734741 331.834930,551.112427 334.743866,561.979309 
	C335.570007,565.065491 336.721863,567.043518 339.752869,568.704956 
	C343.991760,571.028381 349.367676,572.030579 351.078705,578.169006 
	C351.829834,580.863770 355.412140,582.769409 357.708923,585.033325 
	C358.120300,584.689148 358.531677,584.344910 358.943054,584.000732 
	C355.812561,578.603821 352.682098,573.206909 349.263672,567.313599 
	C352.126129,567.313599 354.319000,567.313599 357.446350,567.313599 
	C356.086395,562.336487 354.882507,557.765869 353.586426,553.221619 
	C350.921997,543.879517 356.293610,534.547729 365.820770,532.144104 
	C366.296021,532.024231 366.911957,532.462036 367.721863,532.724121 
	C365.800476,534.262390 364.195770,535.547180 362.610199,536.816589 
	C364.206238,538.735413 365.480804,540.267761 367.071472,542.180237 
	C371.544220,535.650879 375.670319,538.116516 378.736084,542.496094 
	C379.524414,545.450989 380.312714,548.405945 381.101044,551.360840 
	C383.377411,550.158997 385.653778,548.957153 387.594482,547.932495 
	C387.023834,552.134827 386.395569,556.761597 385.786591,561.246277 
	C390.953430,562.675842 394.961578,563.588684 396.855743,558.134888 
	C397.630432,558.662659 398.170593,558.842712 398.398315,559.214355 
	C401.251190,563.869385 402.104462,563.967407 405.710571,559.877441 
	C407.846008,557.455444 409.932922,554.990662 411.740814,552.893982 
	C416.835388,558.743530 423.930206,556.871338 430.032288,558.169678 
	C436.500000,559.545654 442.999146,560.773987 448.769379,561.924255 
	C448.799255,561.913818 448.013916,562.188171 447.499969,562.367737 
	C452.319244,565.971863 457.748138,563.433044 460.793304,560.847473 
	C465.998474,556.427979 469.334717,549.932434 467.946259,542.396667 
	C470.798065,540.459595 475.707764,542.089722 476.188416,536.562012 
	C476.480011,533.208496 477.994965,529.961365 479.080261,526.257202 
	C479.539642,526.346008 480.620117,526.614807 481.716980,526.757019 
	C487.870056,527.554993 487.899414,528.086243 485.165588,533.504639 
	C483.501953,536.802002 482.283661,540.670349 482.154846,544.327698 
	C481.830017,553.547852 475.977783,559.822876 471.078766,566.940918 
	C474.320557,560.011658 475.322968,553.209717 471.272675,546.668396 
	C468.583588,555.600159 465.803558,564.834045 463.228271,573.387878 
	C466.159058,574.795715 468.159424,575.696289 470.104370,576.703918 
	C473.772766,578.604431 477.218811,581.409485 481.107574,582.288025 
	C485.890472,583.368469 491.544952,585.240784 495.043152,579.617065 
	C496.309937,580.617493 497.455841,582.278503 498.784454,582.440430 
	C504.481537,583.134583 510.235107,583.353394 515.962463,583.815613 
	C518.798279,584.044495 521.470703,584.674622 522.603943,580.686829 
	C523.160034,578.730347 525.135864,577.177307 526.838135,574.961426 
	C528.109863,582.342529 519.058594,586.042297 522.367798,593.141235 
	C522.367798,591.938599 522.367798,590.735962 522.367798,589.555237 
	C531.548035,589.770813 530.968506,579.844299 536.469482,576.713623 
	C539.018005,577.383911 541.495789,578.402527 544.019897,578.534607 
	C545.169556,578.594727 546.405090,576.157043 547.611572,576.147949 
	C550.991882,576.122314 554.377258,576.771362 557.365662,577.109497 
	C556.747742,578.349243 555.311829,579.960449 555.671265,580.826599 
	C556.132812,581.938782 558.036804,582.452332 559.319336,583.223816 
	C560.021790,581.402344 560.724243,579.580811 561.546997,577.447449 
	C572.864563,579.209595 583.933411,582.875244 592.205872,594.862549 
	C592.579834,591.318481 592.952148,589.329529 592.971863,587.337036 
	C593.059082,578.549072 593.044739,578.417297 584.367188,576.934387 
	C579.853271,576.163025 575.243774,575.950928 570.273621,575.445129 
	C570.932373,573.160767 571.457886,571.102783 572.118713,569.089233 
	C574.614624,561.484131 575.491089,561.046204 583.241577,562.544250 
	C586.242432,563.124268 589.316895,563.323242 593.462769,563.831177 
	C591.033264,560.100159 588.589355,557.448547 587.447510,554.321533 
	C585.933472,550.175415 583.112610,549.721436 579.581116,550.018250 
	C576.282043,550.295593 572.983521,550.609863 569.698364,551.017517 
	C561.481873,552.037170 552.980408,552.148071 545.161072,554.506287 
	C539.659851,556.165283 538.769348,553.427063 536.557922,550.312927 
	C534.541809,547.473816 531.788757,545.163879 529.424377,542.562622 
	C528.788818,541.863342 528.385864,540.952576 527.917358,540.091187 
	C527.958557,540.043518 528.039246,539.946716 528.398682,540.014526 
	C532.488281,541.383911 536.175781,542.836548 539.971069,543.907227 
	C541.342529,544.294067 542.972290,543.765259 544.484192,543.654297 
	C544.045044,542.281921 543.605835,540.909546 543.312805,539.993835 
	C545.694031,539.748779 548.257996,539.396362 550.833984,539.235657 
	C560.233093,538.649719 570.138367,535.045105 577.566223,544.866943 
	C579.803406,547.825256 583.122131,546.703674 586.410339,543.723633 
	C583.184387,541.648560 580.547974,539.362732 577.489502,538.096008 
	C568.320801,534.298523 558.904541,531.210632 551.752808,523.639954 
	C549.599976,521.360962 545.998657,520.450134 543.060913,518.912537 
	C542.705261,519.362488 542.349548,519.812378 541.993896,520.262329 
	C548.091675,522.229553 546.162598,526.729309 546.419922,532.016357 
	C536.711853,525.050415 525.524536,528.279114 515.785217,523.450623 
	C506.173096,518.685120 495.014832,520.177612 484.389160,519.891357 
	C474.950439,519.637085 469.701324,518.140747 467.154785,508.507935 
	C467.898224,508.094727 468.736267,507.793152 469.371796,507.253265 
	C475.235870,502.271240 480.771149,501.910004 487.512878,505.877075 
	C489.194519,506.866577 491.165710,507.587708 493.090485,507.902344 
	C502.393646,509.423065 511.720062,510.808350 521.057495,512.102844 
	C522.085571,512.245300 523.820984,511.794250 524.175781,511.088928 
	C524.576965,510.291565 524.160156,508.286041 523.458679,507.859863 
	C518.881104,505.078735 514.362000,501.935822 509.379791,500.149414 
	C502.237671,497.588501 494.184326,497.156799 487.501892,493.838745 
	C480.424194,490.324402 473.591095,487.105042 465.672272,486.360016 
	C458.925110,485.725250 452.211914,484.304688 445.467499,484.190735 
	C439.394714,484.088135 433.304016,485.334564 427.210693,485.865326 
	C426.232819,485.950531 425.199921,485.404022 425.160614,485.394104 
	C428.337738,481.205505 431.431091,477.125763 434.529175,473.049591 
	C434.628082,472.919495 434.785095,472.835205 434.897278,472.713257 
	C437.814819,469.541656 435.800598,461.633331 431.918121,459.743774 
	C427.959320,457.817108 422.488220,456.533447 425.359985,449.889709 
	C425.454773,449.670441 425.151398,449.279022 425.020142,448.981873 
	C425.006653,448.995911 424.984009,449.026367 425.364227,449.067932 
	C428.617126,449.578735 432.561157,451.459351 434.157776,450.247406 
	C438.609070,446.868622 440.554810,449.493866 443.172333,452.214722 
	C444.416229,453.507843 446.145416,454.334106 447.471680,455.245941 
	C449.615143,459.883698 439.180481,464.282776 447.559082,469.110718 
	C447.559082,471.549561 447.559082,474.035797 447.559082,476.522003 
	C447.963135,476.695221 448.367188,476.868439 448.771240,477.041656 
	C450.482971,474.971130 452.194733,472.900574 454.646942,469.934387 
	C458.995575,469.493469 464.737762,468.880341 470.488922,468.367401 
	C471.203522,468.303680 472.116150,468.579529 472.682220,469.023102 
	C478.022888,473.208160 480.037903,472.989166 484.109985,467.745972 
	C483.410706,466.957123 482.727600,466.186523 481.281281,464.554901 
	C489.190033,465.357086 495.978394,466.045593 504.130920,466.872498 
	C500.472260,465.082275 501.719696,461.822083 501.098145,460.866608 
	C497.853271,455.878510 503.104279,452.459564 501.391388,447.907349 
	C505.835785,450.200378 509.168121,452.154510 512.708923,453.597107 
	C513.714050,454.006592 515.366821,453.025421 516.652100,452.507202 
	C519.326294,451.428955 521.953430,450.233917 525.000061,448.913422 
	C524.237366,447.961823 522.847656,446.055054 521.278687,444.309326 
	C518.701721,441.441986 520.218140,435.509644 524.011658,433.928772 
M599.307495,556.457458 
	C599.805969,556.495361 600.304504,556.533264 600.802979,556.571106 
	C600.813049,556.419983 600.823181,556.268799 600.833252,556.117615 
	C600.260376,556.034485 599.687500,555.951294 599.017090,555.168945 
	C597.085205,552.357544 595.352905,549.366943 593.093750,546.849182 
	C592.456848,546.139404 590.276184,546.814819 588.803528,546.854858 
	C589.142151,548.359253 588.980042,550.584045 589.913330,551.232727 
	C592.700317,553.169861 595.916565,554.489197 599.307495,556.457458 
M649.478210,573.263550 
	C642.237793,572.277283 634.997437,571.290955 627.757080,570.304626 
	C627.575928,570.718140 627.394775,571.131653 627.213684,571.545105 
	C635.286560,573.546021 641.156860,578.478455 646.197571,584.605286 
	C648.069519,586.880554 649.986633,585.824341 650.776611,583.639648 
	C652.382385,579.198853 654.671692,575.809998 659.921753,574.872498 
	C656.694885,574.444580 653.468018,574.016724 649.478210,573.263550 
M218.028503,675.946838 
	C216.700943,671.382141 213.311661,669.132202 208.909683,669.200928 
	C206.997757,669.230835 203.402740,671.501831 203.523972,672.315002 
	C204.002151,675.522766 204.921082,679.301147 207.089340,681.426514 
	C208.941696,683.242188 212.824173,683.813293 215.609329,683.441406 
	C216.713242,683.294067 217.278961,679.115906 218.028503,675.946838 
M286.316498,726.070129 
	C288.649414,729.999695 292.149017,729.473755 295.850647,728.732117 
	C296.950531,723.737366 293.095184,722.567200 290.070343,721.593079 
	C287.836823,720.873901 285.524384,722.075562 286.316498,726.070129 
M613.699524,563.890259 
	C611.527405,562.950623 609.355347,562.010986 607.183228,561.071411 
	C606.983887,561.507629 606.784485,561.943909 606.585144,562.380188 
	C608.921936,565.335022 611.258667,568.289917 613.792053,571.493347 
	C615.520935,569.103088 617.422302,566.934143 613.699524,563.890259 
M550.700806,584.439514 
	C550.898621,584.425110 551.096497,584.410706 551.294312,584.396301 
	C551.162903,584.340881 551.031555,584.285400 550.700806,584.439514 
z"/>
<path fill="#D2FAFA" opacity="1.000000" stroke="none" 
	d="
M627.038513,477.739380 
	C624.868225,471.430145 619.471008,468.837952 614.119690,465.844299 
	C610.768066,463.969299 608.363525,460.474640 605.203003,458.158356 
	C603.187195,456.681000 600.640930,455.765778 598.197998,455.072479 
	C594.928162,454.144440 591.476562,453.864960 588.193481,452.973724 
	C578.044861,450.218658 567.939209,447.305573 557.481995,444.287720 
	C569.405762,432.150574 582.934814,423.563904 601.148376,428.143127 
	C603.816040,428.813782 606.408630,430.124329 608.784668,431.555786 
	C620.196960,438.431091 631.008118,436.322235 641.798401,429.937256 
	C649.390442,425.444824 656.832886,420.309937 665.017212,417.293549 
	C679.661316,411.896240 693.351624,415.942108 705.280579,425.282501 
	C714.323364,432.363007 723.887390,431.255341 733.348938,427.836365 
	C740.881470,425.114441 748.175964,422.440094 756.330566,423.112488 
	C770.203918,424.256439 783.148682,428.606110 794.880798,435.781555 
	C807.738342,443.645264 820.689209,451.641022 832.327759,461.137726 
	C845.475708,471.866089 857.587524,483.961578 869.417114,496.172485 
	C876.690491,503.680298 882.763977,512.390381 888.995972,520.841003 
	C890.698608,523.149719 891.026917,526.471924 891.732117,529.788208 
	C891.478333,530.247314 891.064087,530.308594 891.064087,530.308594 
	C874.406799,511.340454 855.964050,494.368164 834.062622,481.647400 
	C824.302917,475.978760 814.151245,470.493835 802.414429,469.927734 
	C796.986328,469.665955 795.305359,472.342743 798.467651,476.914368 
	C802.067444,482.118195 806.714111,486.585510 810.716248,491.526459 
	C815.362915,497.263092 819.835144,503.142792 824.287415,509.032715 
	C824.754822,509.651123 824.577393,510.756958 824.669739,511.424286 
	C817.753601,506.996735 810.937744,502.633392 804.121826,498.270050 
	C803.527039,498.769318 802.932190,499.268616 802.337341,499.767914 
	C803.516174,502.015930 804.208923,504.788635 805.963989,506.414825 
	C811.514282,511.557495 817.519226,516.205383 823.236633,521.173096 
	C827.283325,524.689148 831.440979,528.224365 832.329346,534.558411 
	C828.544617,532.310669 825.446655,530.211853 822.106934,528.620300 
	C820.849609,528.021057 818.597595,528.037842 817.603760,528.809814 
	C816.768372,529.458679 816.516785,531.857788 817.022156,533.052551 
	C818.746582,537.128845 820.937439,541.006409 822.916565,544.976685 
	C825.415894,549.990784 825.398071,554.914673 822.780090,559.712463 
	C820.437439,556.456055 818.656433,553.037048 815.971802,550.622986 
	C814.499939,549.299561 811.206726,548.847595 809.286743,549.537842 
	C807.720825,550.100769 806.228760,552.850891 805.988159,554.790466 
	C804.636230,565.690430 809.788086,575.266846 812.508240,585.380859 
	C815.441284,596.286682 817.754150,607.383179 819.785645,618.497375 
	C820.789368,623.988708 820.720947,629.704102 820.814575,635.323486 
	C820.874390,638.910767 820.342834,642.507935 819.267273,646.148315 
	C818.270813,641.235901 817.835083,636.120239 816.145569,631.459045 
	C813.659302,624.599670 810.922974,617.650269 807.010559,611.563721 
	C805.015381,608.459778 800.277405,607.053101 796.645325,605.132263 
	C796.041687,604.813110 794.750427,605.794189 793.497009,606.283813 
	C795.202332,608.930298 796.802063,611.023376 797.984558,613.330261 
	C800.341248,617.927856 798.443176,620.637756 793.389587,621.079529 
	C787.536194,621.591125 781.092529,621.344299 776.038513,623.779175 
	C764.936340,629.128174 762.478760,643.116211 767.613464,655.294067 
	C768.244141,656.789917 769.080505,658.198914 770.229858,660.446655 
	C771.687195,658.990479 772.829773,657.885254 773.931580,656.740723 
	C776.580261,653.989319 778.884460,654.420471 779.980713,658.157471 
	C782.481812,666.683289 779.666382,674.329529 775.602112,681.662537 
	C775.221436,682.349426 774.085510,682.617798 773.023926,683.243225 
	C771.188110,678.360107 769.805359,673.681519 767.715759,669.343506 
	C763.984497,661.597351 755.782959,660.231995 750.542725,667.035339 
	C742.344971,677.678101 734.694519,688.819275 731.332092,702.177063 
	C730.899902,703.894226 730.983032,705.741089 730.787354,707.987854 
	C734.810364,706.725525 738.380676,705.605225 743.306519,704.059631 
	C742.768311,707.412170 742.969421,709.686523 742.036438,711.308228 
	C739.263794,716.127014 736.526123,721.114868 732.875183,725.240540 
	C728.582214,730.091553 724.223694,728.789917 722.146851,722.769409 
	C719.995178,716.531860 715.972900,714.007019 709.943115,716.678162 
	C704.669128,719.014404 699.716736,722.482422 695.293762,726.240723 
	C688.348877,732.142029 681.941040,738.679138 675.354797,744.998108 
	C659.619629,760.094788 644.227478,775.558533 625.840576,787.605774 
	C611.779724,796.818481 596.390381,802.957886 580.403503,807.612671 
	C557.073547,814.405518 533.647034,820.875183 510.194580,827.234924 
	C500.850708,829.768799 491.333191,831.666443 481.878784,833.782654 
	C480.784485,834.027588 479.587952,833.815857 478.093445,832.785400 
	C479.592346,832.226074 481.064911,831.578918 482.594086,831.120850 
	C501.607330,825.426208 520.976685,820.704285 539.566711,813.863403 
	C567.654236,803.527466 594.731323,790.805054 619.003967,772.887024 
	C634.058655,761.773621 648.621582,749.869629 658.463501,733.799805 
	C663.640442,725.347107 666.072510,715.213318 670.121216,704.875732 
	C661.285217,704.875732 653.836426,704.620300 646.411072,704.928467 
	C630.445862,705.591064 614.775635,703.226074 599.028687,701.175415 
	C589.357056,699.915894 579.733948,701.071289 572.214417,708.213867 
	C563.332397,716.650757 554.805481,725.463684 546.208008,734.195801 
	C545.119751,735.301086 544.536316,736.903259 544.407410,739.438782 
	C551.939209,736.614807 559.471069,733.790771 567.002869,730.966736 
	C567.431213,731.615295 567.859619,732.263855 568.287964,732.912415 
	C565.667297,735.841064 563.487549,739.400879 560.351440,741.591675 
	C544.817871,752.443420 527.704163,759.335266 509.052216,763.397766 
	C499.342163,765.512756 489.983612,770.455566 481.223694,775.449585 
	C466.015442,784.119751 450.011261,789.993774 432.826508,792.991272 
	C411.155121,796.771423 389.297302,797.020752 367.249176,795.886719 
	C370.677399,795.299561 374.095581,794.272766 377.535370,794.194397 
	C406.500488,793.534912 434.421844,787.804077 460.881256,776.085815 
	C484.742645,765.518127 507.569122,752.976013 527.520142,735.855652 
	C530.876038,732.975891 533.837524,729.522583 536.482605,725.963684 
	C538.660645,723.033081 540.211426,719.059204 537.410400,716.044983 
	C535.455078,713.940918 531.955444,712.271240 529.093201,712.186951 
	C517.792175,711.854065 506.981110,714.627441 496.476318,718.731873 
	C477.288940,726.228516 461.059357,738.588318 444.166931,749.940796 
	C437.184967,754.632996 429.216644,757.864075 421.654083,761.674561 
	C420.983063,762.012756 419.993958,761.719604 417.587097,761.719604 
	C427.498291,755.456177 437.248016,751.345337 442.515045,742.095947 
	C442.215454,741.403137 441.915894,740.710266 441.616333,740.017456 
	C435.814941,741.273865 430.005280,742.493530 424.214111,743.795349 
	C415.414368,745.773682 406.637207,747.854187 397.821747,749.758362 
	C396.809448,749.976990 395.608246,749.370544 394.504364,749.105896 
	C392.170410,748.546265 389.984283,747.518433 387.884094,750.148193 
	C387.138519,751.081726 384.805054,751.025452 383.214783,750.962036 
	C370.377502,750.450134 358.579559,753.978149 347.002075,759.259277 
	C335.820984,764.359619 324.035187,767.282776 311.065674,764.510986 
	C317.947388,761.651672 324.829102,758.792358 332.830872,755.467712 
	C330.843933,754.710144 329.949249,754.139160 329.006439,754.043701 
	C311.611664,752.282654 294.129364,751.143921 276.843689,748.642639 
	C267.014282,747.220276 257.490509,743.639160 247.853760,740.942139 
	C227.182892,735.157043 207.057709,727.754883 189.735641,714.912903 
	C181.055069,708.477295 170.873108,707.789062 161.620117,703.883057 
	C159.524216,702.998352 157.189682,702.202576 155.597427,700.697021 
	C151.902679,697.203430 152.299576,694.820862 156.575745,688.960327 
	C152.760391,684.063293 148.919144,679.342468 145.360565,674.417358 
	C144.478455,673.196533 144.309525,671.331909 144.167389,669.731750 
	C143.870789,666.392395 145.030914,663.144714 143.352631,659.601379 
	C142.605637,658.024231 144.820877,654.637512 146.329834,652.528870 
	C147.503891,650.888184 149.666275,649.954773 151.677551,648.498352 
	C148.515289,644.800049 147.269394,640.774109 150.059250,636.255981 
	C152.864807,631.712402 157.177505,630.466919 162.025406,631.135925 
	C166.196304,631.711609 170.277130,632.939758 174.774048,633.983948 
	C181.855484,650.422607 188.532303,666.768555 195.326324,683.065552 
	C195.806427,684.217163 197.296875,685.947632 198.069687,685.826599 
	C208.976974,684.118408 213.862778,691.232422 218.257812,699.198364 
	C218.486191,699.612305 218.912369,699.917053 219.389847,700.425232 
	C224.746643,695.009949 228.078476,700.515198 232.058014,702.734680 
	C239.706024,697.892090 249.225891,699.397888 256.533386,706.275269 
	C259.137207,708.725891 261.610474,711.815857 258.390717,715.999878 
	C256.132538,715.344055 253.843170,714.679199 251.553802,714.014343 
	C251.342606,714.363403 251.131393,714.712463 250.920181,715.061523 
	C252.919983,716.460571 254.818207,718.040649 256.936005,719.229431 
	C271.056335,727.155701 285.916260,733.080627 302.063293,735.302490 
	C308.565369,736.197083 315.038483,737.625977 321.602203,735.057251 
	C328.937134,732.186584 335.451721,735.501404 342.074982,738.255554 
	C347.353363,740.450500 352.765930,743.015564 358.316925,743.631409 
	C362.378204,744.081970 366.814392,741.797729 370.984039,740.429443 
	C374.492523,739.278137 377.857605,737.689819 381.677795,736.135498 
	C382.198273,727.875671 386.085022,723.181885 394.094299,722.038635 
	C401.677063,720.956299 407.575806,724.676697 410.252960,731.546509 
	C415.141388,729.325073 419.926422,726.758606 424.983124,724.952759 
	C431.183380,722.738586 437.415192,724.066956 443.502655,726.064941 
	C447.174591,727.270142 450.457642,727.555969 454.329071,725.426514 
	C477.351227,712.763428 499.809265,698.749817 525.461426,691.745239 
	C537.899048,688.349060 550.581299,685.697937 563.472717,690.427673 
	C564.612488,690.845825 567.067566,689.846252 567.836304,688.750610 
	C572.283142,682.413025 578.516235,681.133667 585.402649,682.510559 
	C602.721619,685.973389 619.883362,690.317932 637.290833,693.209290 
	C648.970520,695.149231 660.957703,695.287109 672.820862,696.007446 
	C674.207642,696.091614 675.884216,694.999329 677.079102,694.025940 
	C682.266541,689.800537 687.674255,686.920105 694.795715,688.430969 
	C696.251953,688.739929 698.834778,687.119263 699.819031,685.660095 
	C703.235168,680.595459 705.756592,674.890137 709.443542,670.058228 
	C711.945251,666.779541 715.487427,663.847534 719.191406,662.059814 
	C722.858398,660.289917 724.362488,657.933411 725.022949,654.293335 
	C726.377319,646.829407 727.334900,639.224121 729.540344,632.008484 
	C730.994385,627.251282 734.340027,623.072205 737.289551,618.193604 
	C744.545837,610.922852 752.567322,606.467773 762.174866,604.899902 
	C766.528687,604.189392 770.884277,603.313110 775.118042,602.092529 
	C779.458679,600.840942 780.443604,598.029053 778.047119,594.152344 
	C777.041931,592.526428 775.487427,591.192871 774.023560,589.907715 
	C771.053833,587.300415 767.697754,585.080872 764.991577,582.234985 
	C754.576660,571.282593 755.128113,555.242249 765.203979,546.647278 
	C768.890320,543.502686 773.901001,541.946350 777.773010,538.970032 
	C780.028992,537.236023 782.910583,533.764832 782.474792,531.723206 
	C781.925110,529.147827 778.538147,526.812805 775.880188,525.179626 
	C774.076294,524.071228 771.401550,523.958862 769.150757,524.074524 
	C760.850037,524.501038 754.942261,516.750427 756.741821,507.441071 
	C757.816040,501.883942 760.671631,497.853912 764.519531,494.096466 
	C768.673706,490.040070 767.793701,486.915283 762.094849,485.521606 
	C760.232971,485.066284 758.043640,484.836853 756.265564,485.372375 
	C751.894958,486.688751 747.645874,488.434082 743.402283,490.142029 
	C731.369141,494.985138 720.608643,491.262146 714.768494,480.161682 
	C711.434021,473.823761 705.215698,472.968109 699.623535,477.606659 
	C695.735779,480.831451 691.596985,483.987793 687.085693,486.175018 
	C679.060364,490.065979 668.022034,486.924103 665.213074,476.923645 
	C664.074646,472.870636 663.480408,468.664764 662.280945,462.771332 
	C660.318359,466.097198 659.108154,468.233246 657.817444,470.319519 
	C653.898804,476.653625 649.038635,481.824524 640.820496,480.896973 
	C636.166992,480.371735 631.628723,478.825653 627.038513,477.739380 
z"/>
<path fill="#999C98" opacity="1.000000" stroke="none" 
	d="
M255.011597,585.500732 
	C252.677628,590.259094 250.343674,595.017456 248.009705,599.775818 
	C247.634048,599.844666 247.258392,599.913513 246.882751,599.982361 
	C245.257706,592.589844 243.476013,585.227356 242.049362,577.796753 
	C240.458038,569.508484 239.152664,561.164246 237.795212,552.832581 
	C237.087463,548.488586 233.696121,549.002258 230.472672,548.331726 
	C231.241394,550.203003 231.842880,551.667236 232.047729,552.165955 
	C229.787109,553.675842 228.004776,554.968750 226.124329,556.098328 
	C223.265701,557.815491 220.384781,559.735413 217.486496,556.019409 
	C215.971497,554.076843 214.243134,552.300781 212.313049,550.111389 
	C213.440277,549.641174 214.170425,549.048950 214.854965,549.097717 
	C219.348404,549.417480 219.889877,547.007385 218.921585,543.458557 
	C218.746735,542.817749 218.252670,542.103943 218.401581,541.559326 
	C220.195145,534.999207 217.794235,531.529785 210.960022,531.260620 
	C209.825363,531.215942 208.683487,531.354797 206.745483,531.446716 
	C206.278061,529.650757 206.101242,526.705933 204.779861,524.423950 
	C202.785706,520.980225 200.259384,517.722107 197.398193,514.967896 
	C196.362030,513.970459 193.523560,514.157288 191.884003,514.785889 
	C191.144012,515.069580 191.052689,517.771667 191.141617,519.349731 
	C191.373123,523.458008 191.867081,527.551392 192.308685,532.201904 
	C195.936203,532.201904 200.126923,532.201904 204.250443,532.201904 
	C204.334167,533.015381 204.501205,533.530029 204.379166,533.611511 
	C198.519196,537.522095 200.027847,541.261963 202.940247,546.865784 
	C206.145416,553.032959 204.446655,560.792480 200.045486,566.081482 
	C193.153152,574.364075 185.410904,581.878662 182.503296,592.393127 
	C166.744003,592.976379 158.865524,581.701538 149.907471,571.324890 
	C150.515839,568.197754 151.241776,565.670593 151.967712,563.143372 
	C157.059219,555.901794 162.109390,548.630737 167.252243,541.425842 
	C174.402679,531.408325 181.613113,521.433533 188.836548,511.468506 
	C189.267365,510.874146 190.096970,510.070007 190.645798,510.137512 
	C195.972000,510.792572 196.703369,506.726501 198.083725,503.206329 
	C198.617355,501.845520 199.429047,500.582092 200.203033,499.329254 
	C203.039307,494.738037 206.149475,490.298187 208.717941,485.563446 
	C212.700912,478.221191 218.124313,472.861969 225.887756,469.322968 
	C230.680939,467.138031 234.704041,463.225555 238.994217,459.984497 
	C245.203247,455.293823 251.802261,451.547668 257.181641,445.239868 
	C262.546417,438.949219 271.489777,435.717804 278.841827,431.109406 
	C280.704498,429.941864 282.482178,428.638641 284.624390,427.656647 
	C284.967010,440.560272 284.894348,453.206360 285.091003,465.848267 
	C285.123260,467.920776 286.340942,469.974884 287.010742,472.037476 
	C287.804565,471.911896 288.598389,471.786346 289.392212,471.660767 
	C290.844940,456.819855 289.445709,441.856873 290.151825,426.984009 
	C297.153198,425.975250 304.135498,424.797882 311.161133,424.003571 
	C318.701172,423.151123 326.334503,423.009430 333.826263,421.885315 
	C338.775238,421.142731 343.531494,419.159180 348.405640,417.848938 
	C349.958527,417.431488 351.711395,416.938141 353.203613,417.261139 
	C358.782654,418.468536 364.232574,420.333466 369.841644,421.325867 
	C376.938354,422.581421 384.124054,423.520111 391.310944,423.986176 
	C394.112885,424.167908 396.990204,422.264923 399.888458,422.047180 
	C411.107330,421.204163 422.353058,420.055634 433.580231,420.141479 
	C450.478943,420.270691 467.437073,420.645966 484.241425,422.257019 
	C495.296906,423.316895 506.164093,426.579376 517.027710,429.217377 
	C519.446228,429.804657 521.495972,431.910553 523.863586,433.623016 
	C520.218140,435.509644 518.701721,441.441986 521.278687,444.309326 
	C522.847656,446.055054 524.237366,447.961823 525.000061,448.913422 
	C521.953430,450.233917 519.326294,451.428955 516.652100,452.507202 
	C515.366821,453.025421 513.714050,454.006592 512.708923,453.597107 
	C509.168121,452.154510 505.835785,450.200378 501.391388,447.907349 
	C503.104279,452.459564 497.853271,455.878510 501.098145,460.866608 
	C501.719696,461.822083 500.472260,465.082275 504.130920,466.872498 
	C495.978394,466.045593 489.190033,465.357086 481.281281,464.554901 
	C482.727600,466.186523 483.410706,466.957123 484.109985,467.745972 
	C480.037903,472.989166 478.022888,473.208160 472.682220,469.023102 
	C472.116150,468.579529 471.203522,468.303680 470.488922,468.367401 
	C464.737762,468.880341 458.995575,469.493469 454.646942,469.934387 
	C452.194733,472.900574 450.482971,474.971130 448.771240,477.041656 
	C448.367188,476.868439 447.963135,476.695221 447.559082,476.522003 
	C447.559082,474.035797 447.559082,471.549561 447.559082,469.110718 
	C439.180481,464.282776 449.615143,459.883698 447.471680,455.245941 
	C446.145416,454.334106 444.416229,453.507843 443.172333,452.214722 
	C440.554810,449.493866 438.609070,446.868622 434.157776,450.247406 
	C432.561157,451.459351 428.617126,449.578735 425.221497,448.763641 
	C423.625824,446.566315 422.553162,444.714905 421.228790,442.429047 
	C417.154083,448.576050 413.801270,448.880066 407.538208,444.186157 
	C410.536346,443.802155 413.534515,443.418182 416.719818,443.010223 
	C415.440338,438.623169 410.419128,438.675446 409.246704,439.986450 
	C405.661102,443.995789 401.154572,441.925903 397.377838,443.269989 
	C388.456818,446.444855 379.798126,443.563568 370.827881,442.727783 
	C369.807037,442.408020 368.993042,442.310089 368.179077,442.212158 
	C368.152649,442.423218 368.126221,442.634247 368.099762,442.845276 
	C369.027374,442.941376 369.954987,443.037476 370.867126,443.511658 
	C370.378143,446.568481 369.904663,449.247284 369.431152,451.926056 
	C369.005005,451.847229 368.578827,451.768433 368.152679,451.689606 
	C368.851227,454.349182 369.549774,457.008789 370.386322,460.193817 
	C366.397675,460.749298 362.794617,461.251038 359.191559,461.752808 
	C359.247498,462.162842 359.303436,462.572906 359.359375,462.982941 
	C369.235474,462.104828 379.111572,461.226746 388.987671,460.348633 
	C388.964447,459.898346 388.941193,459.448029 388.917969,458.997742 
	C386.980255,458.997742 385.031128,458.862823 383.107239,459.025940 
	C379.138245,459.362457 377.758179,457.558319 377.965515,453.724792 
	C378.181122,449.738770 380.471008,447.307892 383.912689,446.745605 
	C387.766083,446.115997 392.195801,445.536713 393.620514,449.541046 
	C404.523407,449.342102 414.778534,449.154999 425.033630,448.967896 
	C425.151398,449.279022 425.454773,449.670441 425.359985,449.889709 
	C422.488220,456.533447 427.959320,457.817108 431.918121,459.743774 
	C435.800598,461.633331 437.814819,469.541656 434.897278,472.713257 
	C434.785095,472.835205 434.628082,472.919495 434.529175,473.049591 
	C431.431091,477.125763 428.337738,481.205505 425.160614,485.394104 
	C425.199921,485.404022 426.232819,485.950531 427.210693,485.865326 
	C433.304016,485.334564 439.394714,484.088135 445.467499,484.190735 
	C452.211914,484.304688 458.925110,485.725250 465.672272,486.360016 
	C473.591095,487.105042 480.424194,490.324402 487.501892,493.838745 
	C494.184326,497.156799 502.237671,497.588501 509.379791,500.149414 
	C514.362000,501.935822 518.881104,505.078735 523.458679,507.859863 
	C524.160156,508.286041 524.576965,510.291565 524.175781,511.088928 
	C523.820984,511.794250 522.085571,512.245300 521.057495,512.102844 
	C511.720062,510.808350 502.393646,509.423065 493.090485,507.902344 
	C491.165710,507.587708 489.194519,506.866577 487.512878,505.877075 
	C480.771149,501.910004 475.235870,502.271240 469.371796,507.253265 
	C468.736267,507.793152 467.898224,508.094727 467.154785,508.507935 
	C469.701324,518.140747 474.950439,519.637085 484.389160,519.891357 
	C495.014832,520.177612 506.173096,518.685120 515.785217,523.450623 
	C525.524536,528.279114 536.711853,525.050415 546.419922,532.016357 
	C546.162598,526.729309 548.091675,522.229553 541.993896,520.262329 
	C542.349548,519.812378 542.705261,519.362488 543.060913,518.912537 
	C545.998657,520.450134 549.599976,521.360962 551.752808,523.639954 
	C558.904541,531.210632 568.320801,534.298523 577.489502,538.096008 
	C580.547974,539.362732 583.184387,541.648560 586.410339,543.723633 
	C583.122131,546.703674 579.803406,547.825256 577.566223,544.866943 
	C570.138367,535.045105 560.233093,538.649719 550.833984,539.235657 
	C548.257996,539.396362 545.694031,539.748779 543.312805,539.993835 
	C543.605835,540.909546 544.045044,542.281921 544.484192,543.654297 
	C542.972290,543.765259 541.342529,544.294067 539.971069,543.907227 
	C536.175781,542.836548 532.488281,541.383911 528.271423,539.842224 
	C527.507751,539.552795 527.230835,539.503479 526.953918,539.454102 
	C527.261292,539.682373 527.568726,539.910645 527.876160,540.138855 
	C528.385864,540.952576 528.788818,541.863342 529.424377,542.562622 
	C531.788757,545.163879 534.541809,547.473816 536.557922,550.312927 
	C538.769348,553.427063 539.659851,556.165283 545.161072,554.506287 
	C552.980408,552.148071 561.481873,552.037170 569.698364,551.017517 
	C572.983521,550.609863 576.282043,550.295593 579.581116,550.018250 
	C583.112610,549.721436 585.933472,550.175415 587.447510,554.321533 
	C588.589355,557.448547 591.033264,560.100159 593.462769,563.831177 
	C589.316895,563.323242 586.242432,563.124268 583.241577,562.544250 
	C575.491089,561.046204 574.614624,561.484131 572.118713,569.089233 
	C571.457886,571.102783 570.932373,573.160767 570.273621,575.445129 
	C575.243774,575.950928 579.853271,576.163025 584.367188,576.934387 
	C593.044739,578.417297 593.059082,578.549072 592.971863,587.337036 
	C592.952148,589.329529 592.579834,591.318481 592.205872,594.862549 
	C583.933411,582.875244 572.864563,579.209595 561.546997,577.447449 
	C560.724243,579.580811 560.021790,581.402344 559.319336,583.223816 
	C558.036804,582.452332 556.132812,581.938782 555.671265,580.826599 
	C555.311829,579.960449 556.747742,578.349243 557.365662,577.109497 
	C554.377258,576.771362 550.991882,576.122314 547.611572,576.147949 
	C546.405090,576.157043 545.169556,578.594727 544.019897,578.534607 
	C541.495789,578.402527 539.018005,577.383911 536.469482,576.713623 
	C530.968506,579.844299 531.548035,589.770813 522.367798,589.555237 
	C522.367798,590.735962 522.367798,591.938599 522.367798,593.141235 
	C519.058594,586.042297 528.109863,582.342529 526.838135,574.961426 
	C525.135864,577.177307 523.160034,578.730347 522.603943,580.686829 
	C521.470703,584.674622 518.798279,584.044495 515.962463,583.815613 
	C510.235107,583.353394 504.481537,583.134583 498.784454,582.440430 
	C497.455841,582.278503 496.309937,580.617493 495.043152,579.617065 
	C491.544952,585.240784 485.890472,583.368469 481.107574,582.288025 
	C477.218811,581.409485 473.772766,578.604431 470.104370,576.703918 
	C468.159424,575.696289 466.159058,574.795715 463.228271,573.387878 
	C465.803558,564.834045 468.583588,555.600159 471.272675,546.668396 
	C475.322968,553.209717 474.320557,560.011658 471.078766,566.940918 
	C475.977783,559.822876 481.830017,553.547852 482.154846,544.327698 
	C482.283661,540.670349 483.501953,536.802002 485.165588,533.504639 
	C487.899414,528.086243 487.870056,527.554993 481.716980,526.757019 
	C480.620117,526.614807 479.539642,526.346008 479.080261,526.257202 
	C477.994965,529.961365 476.480011,533.208496 476.188416,536.562012 
	C475.707764,542.089722 470.798065,540.459595 467.946259,542.396667 
	C469.334717,549.932434 465.998474,556.427979 460.793304,560.847473 
	C457.748138,563.433044 452.319244,565.971863 447.499969,562.367737 
	C448.013916,562.188171 448.799255,561.913818 448.769379,561.924255 
	C442.999146,560.773987 436.500000,559.545654 430.032288,558.169678 
	C423.930206,556.871338 416.835388,558.743530 411.740814,552.893982 
	C409.932922,554.990662 407.846008,557.455444 405.710571,559.877441 
	C402.104462,563.967407 401.251190,563.869385 398.398315,559.214355 
	C398.170593,558.842712 397.630432,558.662659 396.855743,558.134888 
	C394.961578,563.588684 390.953430,562.675842 385.786591,561.246277 
	C386.395569,556.761597 387.023834,552.134827 387.594482,547.932495 
	C385.653778,548.957153 383.377411,550.158997 381.101044,551.360840 
	C380.312714,548.405945 379.524414,545.450989 378.736084,542.496094 
	C375.670319,538.116516 371.544220,535.650879 367.071472,542.180237 
	C365.480804,540.267761 364.206238,538.735413 362.610199,536.816589 
	C364.195770,535.547180 365.800476,534.262390 367.721863,532.724121 
	C366.911957,532.462036 366.296021,532.024231 365.820770,532.144104 
	C356.293610,534.547729 350.921997,543.879517 353.586426,553.221619 
	C354.882507,557.765869 356.086395,562.336487 357.446350,567.313599 
	C354.319000,567.313599 352.126129,567.313599 349.263672,567.313599 
	C352.682098,573.206909 355.812561,578.603821 358.943054,584.000732 
	C358.531677,584.344910 358.120300,584.689148 357.708923,585.033325 
	C355.412140,582.769409 351.829834,580.863770 351.078705,578.169006 
	C349.367676,572.030579 343.991760,571.028381 339.752869,568.704956 
	C336.721863,567.043518 335.570007,565.065491 334.743866,561.979309 
	C331.834930,551.112427 330.336212,539.734741 323.781525,530.104370 
	C323.364777,529.492065 323.015686,528.228943 323.337402,527.817200 
	C325.396881,525.181091 325.024841,523.098267 322.522461,520.974976 
	C318.273560,517.369751 314.856903,512.408447 308.576447,512.224976 
	C307.561218,512.195312 305.808472,513.450684 305.576019,514.400635 
	C303.820923,521.572693 297.672760,521.470337 292.519928,521.778198 
	C288.417328,522.023438 286.446686,523.450256 284.600281,526.878296 
	C280.920441,533.710388 276.398926,540.094971 272.824432,546.975769 
	C270.906921,550.666931 269.815887,554.935669 269.133972,559.072693 
	C268.608826,562.258789 267.819336,564.341125 265.315704,566.909485 
	C261.580231,570.741455 259.689301,576.371582 257.009735,581.610840 
	C257.005829,581.985046 257.024902,581.955444 256.764771,582.146484 
	C255.983078,583.294434 255.461548,584.251343 254.952454,585.282715 
	C254.964874,585.357178 255.011581,585.500732 255.011597,585.500732 
M458.787323,518.594482 
	C458.508850,518.544739 458.230408,518.494995 457.951935,518.445312 
	C458.251587,518.686584 458.551208,518.927917 458.956482,519.710022 
	C459.304077,519.978455 459.639557,520.268066 460.017120,520.484131 
	C460.057159,520.507080 460.344025,520.098816 460.516388,519.890564 
	C460.026917,519.572083 459.537415,519.253662 458.787323,518.594482 
M477.023102,524.364624 
	C477.119141,524.388184 477.215149,524.411743 477.311157,524.435303 
	C477.228424,524.272766 477.145691,524.110291 476.479584,523.429810 
	C471.952545,522.712219 467.425507,521.994629 462.631317,521.234680 
	C462.834412,525.643799 463.026276,529.808594 463.255951,534.794006 
	C464.960449,533.490479 467.176788,532.628296 467.258820,531.596313 
	C467.754761,525.357605 474.097595,527.102539 477.023102,524.364624 
M241.806107,493.024841 
	C240.973923,492.893677 240.141739,492.762512 240.188385,492.769867 
	C242.091064,491.465485 244.310455,489.943970 246.809891,488.230438 
	C246.930862,488.311432 247.707733,488.831543 248.753387,489.531616 
	C250.153763,483.687256 259.952759,485.614502 258.962524,476.740784 
	C253.586731,477.390198 248.363159,478.021179 243.139572,478.652191 
	C243.155701,478.978424 243.171829,479.304657 243.187958,479.630859 
	C245.086731,480.179108 246.985519,480.727356 249.892776,481.566772 
	C247.756683,482.553101 246.223358,482.770325 245.588791,483.641937 
	C243.250763,486.853271 240.720245,488.912903 236.393173,489.522827 
	C234.358826,489.809601 231.376984,492.931427 232.988556,497.363525 
	C236.348495,495.840546 239.356079,494.477295 241.806107,493.024841 
z"/>
<path fill="#0B3688" opacity="1.000000" stroke="none" 
	d="
M583.986755,327.165771 
	C584.581970,331.472046 586.029053,335.861420 585.618713,340.069641 
	C584.168823,354.938965 584.820557,369.207977 593.399841,382.204193 
	C594.682495,384.147217 594.857666,386.821381 595.545105,389.157349 
	C593.235840,389.771515 590.919922,390.935242 588.618347,390.907715 
	C576.660156,390.764862 564.679443,390.690033 552.758850,389.849396 
	C544.540100,389.269867 537.482483,384.844452 530.389587,380.920349 
	C518.977051,374.606415 506.512817,373.325287 494.133698,375.679382 
	C479.024902,378.552521 464.280304,383.295563 449.229736,386.541534 
	C442.817932,387.924408 436.035400,387.695862 429.411865,387.968414 
	C411.327484,388.712494 393.242371,389.506989 375.149475,389.958008 
	C354.038116,390.484344 332.918304,390.674713 311.801941,390.993469 
	C308.517395,391.043060 305.231506,391.000153 301.402466,390.708923 
	C299.910675,389.556915 298.962646,388.695984 297.828247,387.471252 
	C297.432983,386.147949 297.043732,385.188812 297.041809,384.228882 
	C297.003021,365.017517 296.989288,345.805969 297.051575,326.594727 
	C297.055573,325.363800 297.718170,324.135040 298.493225,322.960205 
	C299.650940,323.333069 300.371582,323.873718 301.131317,323.935852 
	C314.056274,324.992432 326.972565,326.571808 339.917786,326.872314 
	C363.043335,327.409119 386.174591,327.343384 409.196259,324.100037 
	C419.105804,322.703979 429.164032,322.365295 439.153900,321.536316 
	C457.328156,320.028137 475.477203,317.856079 493.682251,317.172577 
	C514.623291,316.386322 535.683960,316.120178 556.413330,320.102509 
	C565.713562,321.889191 574.802124,324.777405 583.986755,327.165771 
z"/>
<path fill="#FFFFFF" opacity="1.000000" stroke="none" 
	d="
M584.370728,327.093170 
	C574.802124,324.777405 565.713562,321.889191 556.413330,320.102509 
	C535.683960,316.120178 514.623291,316.386322 493.682251,317.172577 
	C475.477203,317.856079 457.328156,320.028137 439.153900,321.536316 
	C429.164032,322.365295 419.105804,322.703979 409.196259,324.100037 
	C386.174591,327.343384 363.043335,327.409119 339.917786,326.872314 
	C326.972565,326.571808 314.056274,324.992432 301.131317,323.935852 
	C300.371582,323.873718 299.650940,323.333069 298.461121,322.509888 
	C297.973297,318.371582 297.936493,314.738464 297.880341,310.682068 
	C297.574493,308.469177 297.046387,306.680481 297.039886,304.889862 
	C296.990540,291.244568 297.043030,277.598877 297.495239,263.974182 
	C298.593323,263.997711 299.266083,263.942108 299.925629,264.011719 
	C312.442902,265.332855 324.949554,266.763306 337.478516,267.960846 
	C343.546692,268.540863 349.653320,268.752777 355.747467,269.018585 
	C364.336426,269.393250 372.963348,270.294495 381.514374,269.842438 
	C397.738861,268.984711 413.902039,266.628021 430.125854,266.187134 
	C448.026764,265.700623 465.987305,266.258820 483.883148,267.144196 
	C495.604980,267.724121 507.313690,269.333466 518.927979,271.130096 
	C533.674011,273.411133 548.334900,276.261261 563.000854,279.033875 
	C573.018372,280.927704 582.981628,283.108459 592.969177,285.160919 
	C592.751648,293.893127 592.534119,302.625305 592.206421,311.735291 
	C591.060791,315.604553 590.309265,319.218842 588.874390,322.537781 
	C588.113892,324.296936 586.166382,325.542908 584.370728,327.093170 
z"/>
<path fill="#CFF8F9" opacity="1.000000" stroke="none" 
	d="
M151.514847,563.082703 
	C151.241776,565.670593 150.515839,568.197754 149.639740,571.050842 
	C149.489578,571.376709 149.381516,571.588013 149.304077,571.885681 
	C149.452454,572.490906 149.678253,572.798523 149.904053,573.106079 
	C151.461075,576.666626 153.086639,580.199463 154.545929,583.799622 
	C155.264420,585.572205 155.675369,587.469482 156.156540,589.716980 
	C153.375763,591.453247 151.630417,593.234131 151.681198,596.647156 
	C151.696976,597.707214 149.486710,599.897400 148.879166,599.707031 
	C137.884735,596.263000 128.970764,604.040833 118.868416,605.031372 
	C113.198593,605.587280 107.484161,605.688049 101.683792,605.999573 
	C101.417542,608.899170 101.417542,608.899170 122.068909,624.381836 
	C112.257263,624.331909 103.996643,621.070068 96.412979,615.786316 
	C92.024193,612.728577 87.182579,612.292847 82.004181,612.763855 
	C74.088730,613.483948 67.358635,610.940125 62.283443,604.622620 
	C59.975307,601.749512 61.171116,599.060486 65.412514,597.074463 
	C66.447006,596.589966 68.138634,595.447510 68.030258,594.909241 
	C67.153595,590.555054 70.250053,590.905823 72.635941,591.056030 
	C80.703720,591.564331 88.756004,592.320251 96.813332,592.992126 
	C100.644012,593.311584 103.524658,592.160522 105.097801,588.309448 
	C106.672035,584.455688 110.127533,582.724609 113.879433,583.244019 
	C120.758911,584.196411 123.445786,579.891479 126.603523,574.155396 
	C122.373482,573.383362 118.625420,572.088318 114.887192,572.116089 
	C90.502419,572.297424 67.271156,566.207458 43.990379,559.964294 
	C36.911751,558.065979 29.396128,557.303162 22.047638,557.072510 
	C16.815399,556.908325 14.061925,555.776306 14.676441,550.128113 
	C14.761037,549.350586 14.468554,548.531982 14.219846,546.845459 
	C20.560701,548.734741 26.306705,550.921997 32.251827,552.126343 
	C48.184216,555.353821 64.188232,558.236267 80.189201,561.114563 
	C99.564461,564.599915 119.149498,564.235229 138.714020,563.950684 
	C142.833633,563.890747 146.946182,563.344299 151.514847,563.082703 
z"/>
<path fill="#CBF5F9" opacity="1.000000" stroke="none" 
	d="
M213.720947,753.428101 
	C237.302994,758.372437 260.540924,763.100830 283.251129,767.721863 
	C275.756927,767.384888 267.622345,767.405273 259.577454,766.565979 
	C247.802689,765.337708 236.092743,763.489075 224.354141,761.912415 
	C204.928055,759.303284 185.532074,756.135071 168.049454,746.798584 
	C153.377182,738.963013 145.867538,725.676575 143.639359,708.911316 
	C160.670120,733.746887 186.550568,744.233704 213.720947,753.428101 
z"/>
<path fill="#99583A" opacity="1.000000" stroke="none" 
	d="
M285.895172,311.430420 
	C285.889526,274.628662 285.916748,238.258011 286.082764,201.887985 
	C286.091095,200.064285 284.307953,196.824860 288.777710,197.239899 
	C289.108490,235.537064 289.137085,273.268158 289.104858,311.464417 
	C289.365723,340.906006 289.687469,369.882416 289.607788,398.906311 
	C287.859222,398.966980 286.512085,398.980133 285.164978,398.993317 
	C285.111359,372.386566 285.032654,345.779816 285.046204,319.173096 
	C285.047424,316.735779 285.638763,314.298767 285.895172,311.430420 
z"/>
<path fill="#067496" opacity="1.000000" stroke="none" 
	d="
M290.009216,398.858856 
	C289.687469,369.882416 289.365723,340.906006 289.539856,311.464569 
	C292.657074,311.034821 295.278381,311.070099 297.899689,311.105347 
	C297.936493,314.738464 297.973297,318.371582 298.042236,322.454987 
	C297.718170,324.135040 297.055573,325.363800 297.051575,326.594727 
	C296.989288,345.805969 297.003021,365.017517 297.041809,384.228882 
	C297.043732,385.188812 297.432983,386.147949 297.609344,387.660400 
	C296.534271,390.480499 295.491730,392.747650 294.449188,395.014771 
	C294.449188,395.014771 294.159180,395.303314 293.844208,395.636841 
	C292.355896,396.933167 291.182556,397.895996 290.009216,398.858856 
z"/>
<path fill="#99583A" opacity="1.000000" stroke="none" 
	d="
M290.095215,426.517822 
	C289.445709,441.856873 290.844940,456.819855 289.392212,471.660767 
	C288.598389,471.786346 287.804565,471.911896 287.010742,472.037476 
	C286.340942,469.974884 285.123260,467.920776 285.091003,465.848267 
	C284.894348,453.206360 284.967010,440.560272 284.899017,427.449768 
	C284.913391,418.634674 284.978607,410.285370 285.508209,401.470093 
	C287.317871,401.052032 288.663147,401.099976 290.008423,401.147949 
	C290.018463,409.449188 290.028534,417.750397 290.095215,426.517822 
z"/>
<path fill="#706B69" opacity="1.000000" stroke="none" 
	d="
M891.044067,530.718750 
	C891.064087,530.308594 891.478333,530.247314 891.684448,530.214111 
	C891.890564,534.607605 891.890564,539.034241 891.890564,543.460876 
	C891.530945,543.621765 891.171265,543.782715 890.811646,543.943665 
	C890.347290,543.058960 889.417236,542.127747 889.500061,541.297668 
	C889.840332,537.891357 890.488892,534.515808 891.044067,530.718750 
z"/>
<path fill="#999C98" opacity="1.000000" stroke="none" 
	d="
M290.339294,400.967407 
	C288.663147,401.099976 287.317871,401.052032 285.568787,401.005371 
	C285.130798,400.558350 285.096588,400.109985 285.113678,399.327484 
	C286.512085,398.980133 287.859222,398.966980 289.607788,398.906311 
	C291.182556,397.895996 292.355896,396.933167 293.769348,395.706482 
	C292.896362,397.224060 291.783264,399.005463 290.339294,400.967407 
z"/>
<path fill="#999C98" opacity="1.000000" stroke="none" 
	d="
M294.803406,395.182892 
	C295.491730,392.747650 296.534271,390.480499 297.795715,388.024231 
	C298.962646,388.695984 299.910675,389.556915 301.011780,390.701477 
	C299.162415,392.440430 297.160004,393.895721 294.803406,395.182892 
z"/>
<path fill="#05793A" opacity="1.000000" stroke="none" 
	d="
M593.332642,284.932739 
	C582.981628,283.108459 573.018372,280.927704 563.000854,279.033875 
	C548.334900,276.261261 533.674011,273.411133 518.927979,271.130096 
	C507.313690,269.333466 495.604980,267.724121 483.883148,267.144196 
	C465.987305,266.258820 448.026764,265.700623 430.125854,266.187134 
	C413.902039,266.628021 397.738861,268.984711 381.514374,269.842438 
	C372.963348,270.294495 364.336426,269.393250 355.747467,269.018585 
	C349.653320,268.752777 343.546692,268.540863 337.478516,267.960846 
	C324.949554,266.763306 312.442902,265.332855 299.925629,264.011719 
	C299.266083,263.942108 298.593323,263.997711 297.468079,263.507874 
	C297.002258,242.391006 296.995056,221.761337 296.987854,201.131653 
	C307.875916,202.421402 318.752228,203.821747 329.654541,204.976700 
	C349.207977,207.048096 368.792755,208.832016 388.332367,211.022049 
	C396.907593,211.983185 405.422211,213.544235 413.927032,215.044449 
	C417.094208,215.603104 420.106659,217.045074 423.274658,217.591354 
	C429.055206,218.588181 434.911896,219.133987 440.713531,220.020248 
	C448.747375,221.247452 456.845001,222.235260 464.761230,224.012238 
	C476.634583,226.677460 488.373260,229.942322 500.173981,232.933380 
	C500.646759,233.053207 501.168274,232.983322 501.667236,232.996597 
	C514.250244,233.331482 526.847839,233.397400 539.412109,234.077377 
	C551.368042,234.724426 563.293884,235.964630 575.217102,237.108795 
	C576.191406,237.202286 577.807190,238.536148 577.836182,239.340042 
	C578.151123,248.089035 581.876343,255.077957 587.990112,261.159271 
	C594.622375,267.756378 593.580078,276.417389 593.332642,284.932739 
z"/>
<path fill="#A3DEF3" opacity="1.000000" stroke="none" 
	d="
M296.666412,201.002655 
	C296.995056,221.761337 297.002258,242.391006 297.036621,263.487000 
	C297.043030,277.598877 296.990540,291.244568 297.039886,304.889862 
	C297.046387,306.680481 297.574493,308.469177 297.880341,310.682068 
	C295.278381,311.070099 292.657074,311.034821 289.600739,310.999420 
	C289.137085,273.268158 289.108490,235.537064 289.241150,197.353912 
	C291.716583,198.225784 294.030762,199.549713 296.666412,201.002655 
z"/>
<path fill="#99583A" opacity="1.000000" stroke="none" 
	d="
M282.682465,172.737885 
	C284.189148,169.282913 286.083496,166.264511 289.646454,169.112122 
	C292.060211,171.041275 294.837524,173.327179 290.716156,177.728714 
	C288.322968,180.284592 289.484406,186.144135 288.984314,190.509995 
	C288.796783,192.147003 288.433685,193.763916 288.150604,195.389984 
	C287.433746,195.330154 286.716858,195.270309 286.000000,195.210480 
	C286.000000,192.227127 286.011169,189.243713 285.997223,186.260422 
	C285.979126,182.394760 286.483154,178.391052 282.509399,175.754883 
	C282.083069,175.472015 282.457214,173.982452 282.682465,172.737885 
z"/>
<path fill="#067496" opacity="1.000000" stroke="none" 
	d="
M626.778076,477.982880 
	C631.628723,478.825653 636.166992,480.371735 640.820496,480.896973 
	C649.038635,481.824524 653.898804,476.653625 657.817444,470.319519 
	C659.108154,468.233246 660.318359,466.097198 662.280945,462.771332 
	C663.480408,468.664764 664.074646,472.870636 665.213074,476.923645 
	C668.022034,486.924103 679.060364,490.065979 687.085693,486.175018 
	C691.596985,483.987793 695.735779,480.831451 699.623535,477.606659 
	C705.215698,472.968109 711.434021,473.823761 714.768494,480.161682 
	C720.608643,491.262146 731.369141,494.985138 743.402283,490.142029 
	C747.645874,488.434082 751.894958,486.688751 756.265564,485.372375 
	C758.043640,484.836853 760.232971,485.066284 762.094849,485.521606 
	C767.793701,486.915283 768.673706,490.040070 764.519531,494.096466 
	C760.671631,497.853912 757.816040,501.883942 756.741821,507.441071 
	C754.942261,516.750427 760.850037,524.501038 769.150757,524.074524 
	C771.401550,523.958862 774.076294,524.071228 775.880188,525.179626 
	C778.538147,526.812805 781.925110,529.147827 782.474792,531.723206 
	C782.910583,533.764832 780.028992,537.236023 777.773010,538.970032 
	C773.901001,541.946350 768.890320,543.502686 765.203979,546.647278 
	C755.128113,555.242249 754.576660,571.282593 764.991577,582.234985 
	C767.697754,585.080872 771.053833,587.300415 774.023560,589.907715 
	C775.487427,591.192871 777.041931,592.526428 778.047119,594.152344 
	C780.443604,598.029053 779.458679,600.840942 775.118042,602.092529 
	C770.884277,603.313110 766.528687,604.189392 762.174866,604.899902 
	C752.567322,606.467773 744.545837,610.922852 737.440491,617.880615 
	C736.063843,616.370422 734.481018,614.868652 733.997559,613.071289 
	C731.839111,605.047607 726.823975,599.387939 719.174500,596.966370 
	C711.655090,594.585938 710.847168,588.552612 710.194214,582.689270 
	C709.691956,578.178162 708.767090,574.339050 705.631348,570.996521 
	C704.718811,570.023682 704.227844,568.405273 704.076721,567.024475 
	C703.824829,564.723267 703.660645,562.314636 704.058411,560.056763 
	C705.922607,549.474854 700.998352,542.076599 693.394775,535.580017 
	C690.346069,532.975159 688.222595,529.302551 685.232422,526.610779 
	C680.586914,522.428833 675.575256,518.651672 670.687866,514.741638 
	C668.886963,513.300781 667.009949,511.953705 665.147400,510.591431 
	C658.978271,506.079315 651.570557,506.983521 644.616394,506.098236 
	C641.616333,505.716278 640.117065,504.712921 638.684326,501.928040 
	C636.937683,498.533112 634.263184,495.448547 631.445862,492.810852 
	C627.269836,488.901031 624.778442,482.479095 626.778076,477.982880 
M762.758423,538.099243 
	C760.268494,540.256836 757.598083,542.257446 755.457397,544.718811 
	C755.078491,545.154480 756.907593,547.510437 757.717041,548.979675 
	C759.895874,547.350647 762.595337,546.079590 764.055115,543.956299 
	C764.909607,542.713379 763.786743,540.111084 762.758423,538.099243 
z"/>
<path fill="#999C98" opacity="1.000000" stroke="none" 
	d="
M649.859680,573.426208 
	C653.468018,574.016724 656.694885,574.444580 659.921753,574.872498 
	C654.671692,575.809998 652.382385,579.198853 650.776611,583.639648 
	C649.986633,585.824341 648.069519,586.880554 646.197571,584.605286 
	C641.156860,578.478455 635.286560,573.546021 627.213684,571.545105 
	C627.394775,571.131653 627.575928,570.718140 627.757080,570.304626 
	C634.997437,571.290955 642.237793,572.277283 649.859680,573.426208 
z"/>
<path fill="#D8FBFA" opacity="1.000000" stroke="none" 
	d="
M218.059113,676.359863 
	C217.278961,679.115906 216.713242,683.294067 215.609329,683.441406 
	C212.824173,683.813293 208.941696,683.242188 207.089340,681.426514 
	C204.921082,679.301147 204.002151,675.522766 203.523972,672.315002 
	C203.402740,671.501831 206.997757,669.230835 208.909683,669.200928 
	C213.311661,669.132202 216.700943,671.382141 218.059113,676.359863 
z"/>
<path fill="#989B97" opacity="1.000000" stroke="none" 
	d="
M255.048584,585.941406 
	C255.011581,585.500732 254.964874,585.357178 255.301697,585.185303 
	C256.100647,583.994080 256.562775,582.974731 257.024902,581.955444 
	C257.024902,581.955444 257.005829,581.985046 256.991180,581.995361 
	C257.884216,582.088013 258.791901,582.170349 258.797699,582.170898 
	C258.449921,590.378296 258.340881,598.645203 257.592896,606.853882 
	C257.389801,609.082703 255.258316,611.135925 254.007523,613.637207 
	C254.003143,614.004700 254.023376,613.968079 254.023376,613.968079 
	C249.587173,606.563660 249.396500,599.161560 253.745667,591.592773 
	C254.606857,590.094116 254.659866,588.131042 255.048584,585.941406 
z"/>
<path fill="#999C98" opacity="1.000000" stroke="none" 
	d="
M598.965149,556.049866 
	C595.916565,554.489197 592.700317,553.169861 589.913330,551.232727 
	C588.980042,550.584045 589.142151,548.359253 588.803528,546.854858 
	C590.276184,546.814819 592.456848,546.139404 593.093750,546.849182 
	C595.352905,549.366943 597.085205,552.357544 599.028076,555.563599 
	C599.039001,555.958252 598.965149,556.049866 598.965149,556.049866 
z"/>
<path fill="#DEFCFB" opacity="1.000000" stroke="none" 
	d="
M286.154816,725.699829 
	C285.524384,722.075562 287.836823,720.873901 290.070343,721.593079 
	C293.095184,722.567200 296.950531,723.737366 295.850647,728.732117 
	C292.149017,729.473755 288.649414,729.999695 286.154816,725.699829 
z"/>
<path fill="#999C98" opacity="1.000000" stroke="none" 
	d="
M614.030273,564.054810 
	C617.422302,566.934143 615.520935,569.103088 613.792053,571.493347 
	C611.258667,568.289917 608.921936,565.335022 606.585144,562.380188 
	C606.784485,561.943909 606.983887,561.507629 607.183228,561.071411 
	C609.355347,562.010986 611.527405,562.950623 614.030273,564.054810 
z"/>
<path fill="#929592" opacity="1.000000" stroke="none" 
	d="
M253.985626,614.016174 
	C254.879272,613.478638 255.790451,612.929565 256.945435,612.233643 
	C257.210236,617.797363 257.467560,623.203796 257.724884,628.610291 
	C257.078796,628.679749 256.432709,628.749207 255.786636,628.818665 
	C255.188339,624.160706 254.590042,619.502686 254.007568,614.406372 
	C254.023376,613.968079 254.003143,614.004700 253.985626,614.016174 
z"/>
<path fill="#999C98" opacity="1.000000" stroke="none" 
	d="
M599.076782,555.913208 
	C599.687500,555.951294 600.260376,556.034485 600.833252,556.117615 
	C600.823181,556.268799 600.813049,556.419983 600.802979,556.571106 
	C600.304504,556.533264 599.805969,556.495361 599.136353,556.253662 
	C598.965149,556.049866 599.039001,555.958252 599.076782,555.913208 
z"/>
<path fill="#999C98" opacity="1.000000" stroke="none" 
	d="
M550.800537,584.334717 
	C551.031555,584.285400 551.162903,584.340881 551.294312,584.396362 
	C551.096497,584.410706 550.898621,584.425110 550.800537,584.334717 
z"/>
<path fill="#999C98" opacity="1.000000" stroke="none" 
	d="
M149.830780,572.766846 
	C149.678253,572.798523 149.452454,572.490906 149.321686,572.003052 
	C149.530334,572.024353 149.643921,572.225952 149.830780,572.766846 
z"/>
<path fill="#686B6D" opacity="1.000000" stroke="none" 
	d="
M371.034760,442.949646 
	C379.798126,443.563568 388.456818,446.444855 397.377838,443.269989 
	C401.154572,441.925903 405.661102,443.995789 409.246704,439.986450 
	C410.419128,438.675446 415.440338,438.623169 416.719818,443.010223 
	C413.534515,443.418182 410.536346,443.802155 407.538208,444.186157 
	C413.801270,448.880066 417.154083,448.576050 421.228790,442.429047 
	C422.553162,444.714905 423.625824,446.566315 424.841248,448.722046 
	C424.984009,449.026367 425.006653,448.995911 425.020142,448.981903 
	C414.778534,449.154999 404.523407,449.342102 393.620514,449.541046 
	C392.195801,445.536713 387.766083,446.115997 383.912689,446.745605 
	C380.471008,447.307892 378.181122,449.738770 377.965515,453.724792 
	C377.758179,457.558319 379.138245,459.362457 383.107239,459.025940 
	C385.031128,458.862823 386.980255,458.997742 388.917969,458.997742 
	C388.941193,459.448029 388.964447,459.898346 388.987671,460.348633 
	C379.111572,461.226746 369.235474,462.104828 359.359375,462.982941 
	C359.303436,462.572906 359.247498,462.162842 359.191559,461.752808 
	C362.794617,461.251038 366.397675,460.749298 370.386322,460.193817 
	C369.549774,457.008789 368.851227,454.349182 368.152679,451.689606 
	C368.578827,451.768433 369.005005,451.847229 369.431152,451.926056 
	C369.904663,449.247284 370.378143,446.568481 370.905701,443.466125 
	C370.959778,443.042542 371.034760,442.949646 371.034760,442.949646 
z"/>
<path fill="#686B6D" opacity="1.000000" stroke="none" 
	d="
M242.084869,493.069427 
	C239.356079,494.477295 236.348495,495.840546 232.988556,497.363525 
	C231.376984,492.931427 234.358826,489.809601 236.393173,489.522827 
	C240.720245,488.912903 243.250763,486.853271 245.588791,483.641937 
	C246.223358,482.770325 247.756683,482.553101 249.892776,481.566772 
	C246.985519,480.727356 245.086731,480.179108 243.187958,479.630859 
	C243.171829,479.304657 243.155701,478.978424 243.139572,478.652191 
	C248.363159,478.021179 253.586731,477.390198 258.962524,476.740784 
	C259.952759,485.614502 250.153763,483.687256 248.753387,489.531616 
	C247.707733,488.831543 246.930862,488.311432 246.809891,488.230438 
	C244.310455,489.943970 242.091064,491.465485 240.188385,492.769867 
	C240.141739,492.762512 240.973923,492.893677 242.084869,493.069427 
z"/>
<path fill="#696C6E" opacity="1.000000" stroke="none" 
	d="
M476.877472,524.141663 
	C474.097595,527.102539 467.754761,525.357605 467.258820,531.596313 
	C467.176788,532.628296 464.960449,533.490479 463.255951,534.794006 
	C463.026276,529.808594 462.834412,525.643799 462.631317,521.234680 
	C467.425507,521.994629 471.952545,522.712219 476.723602,523.735962 
	C476.967621,524.042175 476.877472,524.141663 476.877472,524.141663 
z"/>
<path fill="#686B6D" opacity="1.000000" stroke="none" 
	d="
M256.764771,582.146484 
	C256.562775,582.974731 256.100647,583.994080 255.289276,585.110840 
	C255.461548,584.251343 255.983078,583.294434 256.764771,582.146484 
z"/>
<path fill="#696C6E" opacity="1.000000" stroke="none" 
	d="
M459.047913,518.935242 
	C459.537415,519.253662 460.026917,519.572083 460.516388,519.890564 
	C460.344025,520.098816 460.057159,520.507080 460.017120,520.484131 
	C459.639557,520.268066 459.304077,519.978455 458.953369,519.381470 
	C458.950226,519.052917 459.047913,518.935242 459.047913,518.935242 
z"/>
<path fill="#686B6D" opacity="1.000000" stroke="none" 
	d="
M370.921204,443.088074 
	C369.954987,443.037476 369.027374,442.941376 368.099762,442.845276 
	C368.126221,442.634247 368.152649,442.423218 368.179077,442.212158 
	C368.993042,442.310089 369.807037,442.408020 370.827881,442.727783 
	C371.034760,442.949646 370.959778,443.042542 370.921204,443.088074 
z"/>
<path fill="#696C6E" opacity="1.000000" stroke="none" 
	d="
M458.900543,519.111084 
	C458.551208,518.927917 458.251587,518.686584 457.951935,518.445312 
	C458.230408,518.494995 458.508850,518.544739 458.917603,518.764893 
	C459.047913,518.935242 458.950226,519.052917 458.900543,519.111084 
z"/>
<path fill="#686B6D" opacity="1.000000" stroke="none" 
	d="
M527.917358,540.091187 
	C527.568726,539.910645 527.261292,539.682373 526.953918,539.454102 
	C527.230835,539.503479 527.507751,539.552795 527.911987,539.774414 
	C528.039246,539.946716 527.958557,540.043518 527.917358,540.091187 
z"/>
<path fill="#696C6E" opacity="1.000000" stroke="none" 
	d="
M477.015289,523.994995 
	C477.145691,524.110291 477.228424,524.272766 477.311157,524.435303 
	C477.215149,524.411743 477.119141,524.388184 476.950287,524.253174 
	C476.877472,524.141663 476.967621,524.042175 477.015289,523.994995 
z"/>
<path fill="#C1F0F7" opacity="1.000000" stroke="none" 
	d="
M763.155884,538.109741 
	C763.786743,540.111084 764.909607,542.713379 764.055115,543.956299 
	C762.595337,546.079590 759.895874,547.350647 757.717041,548.979675 
	C756.907593,547.510437 755.078491,545.154480 755.457397,544.718811 
	C757.598083,542.257446 760.268494,540.256836 763.155884,538.109741 
z"/>
</svg>